# xmcd
#
# Track frame offsets: 
#        150
#        20130
#        36280
#        50179
#        65844
#        90564
#        107437
#        125092
#        145413
#        164233
#        178160
#        194425
#        212386
#        234453
#
# Disc length: 3461 seconds
#
# Revision: 0
# Processed by: cddbd v1.5.2PL0 Copyright (c) Steve Scherf et al.
# Submitted via: ExactAudioCopy v1.0b1
#
DISCID=da0d830e
DTITLE=Various Artist - Pick Up The Blues
DYEAR=2009
DGENRE=Blues
TTITLE0=Gris Gris - The Coyote Kings
TTITLE1=Too Many Miles- Will Bell
TTITLE2=Hold My Breath - Roberson, Beese and Flores
TTITLE3=Cadillac Baby - Dr. Mambo
TTITLE4=Leave Your Girl At Home - Lori B! and The Blue Diamonds
TTITLE5=Little Bit of Lightning - Nathan Moore and the Quartertons
TTITLE6=Pawn Shop Guitar - Soliz and Peterson
TTITLE7=Three Hours Ago - The BoDo Brothers
TTITLE8=Since You've Been Gone - Ed Hornung
TTITLE9=Banned From The Bar - Bernie Reilly and Next In Line
TTITLE10=Plan To Have The Blues - Richard Soliz 
TTITLE11=Mendoza Boogie - Ken Harris
TTITLE12=Break Me Down Slowly - Barbara Laing and Next In Line
TTITLE13=She Moved Me Out (When's She Going To Leave) - Red and Grey
EXTD=
EXTT0=
EXTT1=
EXTT2=
EXTT3=
EXTT4=
EXTT5=
EXTT6=
EXTT7=
EXTT8=
EXTT9=
EXTT10=
EXTT11=
EXTT12=
EXTT13=
PLAYORDER=
